<mxfile host="Electron" modified="2024-04-10T16:38:38.367Z" agent="Mozilla/5.0 (Windows NT 10.0; Win64; x64) AppleWebKit/537.36 (KHTML, like Gecko) draw.io/24.1.0 Chrome/120.0.6099.109 Electron/28.1.0 Safari/537.36" etag="px9g6brbBzgQXx8qhoS3" version="24.1.0" type="device">
  <diagram name="Page-1" id="93AfGYuef2_yZVPc6nXK">
    <mxGraphModel dx="817" dy="1287" grid="1" gridSize="10" guides="1" tooltips="1" connect="1" arrows="1" fold="1" page="1" pageScale="1" pageWidth="850" pageHeight="1100" math="1" shadow="0">
      <root>
        <mxCell id="0" />
        <mxCell id="1" parent="0" />
        <mxCell id="_8p6ips-M0uwUmmZzf2N-1" style="edgeStyle=orthogonalEdgeStyle;rounded=0;orthogonalLoop=1;jettySize=auto;html=1;" parent="1" source="aKUcC3R_XuYBYOixHhx6-1" target="_Q1D4A2BXSlT8b5iJfI7-35" edge="1">
          <mxGeometry relative="1" as="geometry">
            <mxPoint x="320" y="160" as="targetPoint" />
          </mxGeometry>
        </mxCell>
        <mxCell id="aKUcC3R_XuYBYOixHhx6-1" value="&lt;div&gt;Усовершенствованный метод Эйлера&lt;/div&gt;&lt;div&gt;\(f(x, y), [a, b], y(a), \epsilon\)&lt;/div&gt;" style="ellipse;whiteSpace=wrap;html=1;" parent="1" vertex="1">
          <mxGeometry x="240" y="40" width="160" height="80" as="geometry" />
        </mxCell>
        <mxCell id="_Q1D4A2BXSlT8b5iJfI7-36" style="edgeStyle=orthogonalEdgeStyle;rounded=0;orthogonalLoop=1;jettySize=auto;html=1;" edge="1" parent="1" source="_Q1D4A2BXSlT8b5iJfI7-35" target="_Q1D4A2BXSlT8b5iJfI7-37">
          <mxGeometry relative="1" as="geometry">
            <mxPoint x="320" y="260.0000000000001" as="targetPoint" />
          </mxGeometry>
        </mxCell>
        <mxCell id="_Q1D4A2BXSlT8b5iJfI7-35" value="$$h = (b-a) \cdot \epsilon$$&lt;div&gt;$$x, y = a, y(a)$$&lt;/div&gt;" style="rounded=0;whiteSpace=wrap;html=1;" vertex="1" parent="1">
          <mxGeometry x="260" y="160.0000000000001" width="120" height="60" as="geometry" />
        </mxCell>
        <mxCell id="_Q1D4A2BXSlT8b5iJfI7-38" style="edgeStyle=orthogonalEdgeStyle;rounded=0;orthogonalLoop=1;jettySize=auto;html=1;" edge="1" parent="1" source="_Q1D4A2BXSlT8b5iJfI7-37" target="_Q1D4A2BXSlT8b5iJfI7-39">
          <mxGeometry relative="1" as="geometry">
            <mxPoint x="399.9999999999999" y="300" as="targetPoint" />
          </mxGeometry>
        </mxCell>
        <mxCell id="_Q1D4A2BXSlT8b5iJfI7-55" style="edgeStyle=orthogonalEdgeStyle;rounded=0;orthogonalLoop=1;jettySize=auto;html=1;" edge="1" parent="1" source="_Q1D4A2BXSlT8b5iJfI7-37" target="_Q1D4A2BXSlT8b5iJfI7-56">
          <mxGeometry relative="1" as="geometry">
            <mxPoint x="310" y="390" as="targetPoint" />
          </mxGeometry>
        </mxCell>
        <mxCell id="_Q1D4A2BXSlT8b5iJfI7-37" value="$$ x &amp;lt; b $$" style="rhombus;whiteSpace=wrap;html=1;" vertex="1" parent="1">
          <mxGeometry x="275" y="260" width="90" height="80" as="geometry" />
        </mxCell>
        <mxCell id="_Q1D4A2BXSlT8b5iJfI7-41" value="" style="edgeStyle=orthogonalEdgeStyle;rounded=0;orthogonalLoop=1;jettySize=auto;html=1;" edge="1" parent="1" source="_Q1D4A2BXSlT8b5iJfI7-39" target="_Q1D4A2BXSlT8b5iJfI7-40">
          <mxGeometry relative="1" as="geometry" />
        </mxCell>
        <mxCell id="_Q1D4A2BXSlT8b5iJfI7-39" value="$$ y_{ожид} = y + h \cdot f(x, y) $$" style="rounded=0;whiteSpace=wrap;html=1;" vertex="1" parent="1">
          <mxGeometry x="460" y="270" width="150" height="60" as="geometry" />
        </mxCell>
        <mxCell id="_Q1D4A2BXSlT8b5iJfI7-42" style="edgeStyle=orthogonalEdgeStyle;rounded=0;orthogonalLoop=1;jettySize=auto;html=1;" edge="1" parent="1" source="_Q1D4A2BXSlT8b5iJfI7-40" target="_Q1D4A2BXSlT8b5iJfI7-43">
          <mxGeometry relative="1" as="geometry">
            <mxPoint x="480" y="470" as="targetPoint" />
          </mxGeometry>
        </mxCell>
        <mxCell id="_Q1D4A2BXSlT8b5iJfI7-40" value="$$ y_{испр} = y + \frac{h \cdot (f(x, y) + f (x + h, y_{ожид}))}{2}$$" style="whiteSpace=wrap;html=1;rounded=0;" vertex="1" parent="1">
          <mxGeometry x="405" y="370" width="260" height="60" as="geometry" />
        </mxCell>
        <mxCell id="_Q1D4A2BXSlT8b5iJfI7-44" style="edgeStyle=orthogonalEdgeStyle;rounded=0;orthogonalLoop=1;jettySize=auto;html=1;" edge="1" parent="1" source="_Q1D4A2BXSlT8b5iJfI7-43" target="_Q1D4A2BXSlT8b5iJfI7-45">
          <mxGeometry relative="1" as="geometry">
            <mxPoint x="590" y="510" as="targetPoint" />
          </mxGeometry>
        </mxCell>
        <mxCell id="_Q1D4A2BXSlT8b5iJfI7-51" style="edgeStyle=orthogonalEdgeStyle;rounded=0;orthogonalLoop=1;jettySize=auto;html=1;" edge="1" parent="1" source="_Q1D4A2BXSlT8b5iJfI7-43" target="_Q1D4A2BXSlT8b5iJfI7-52">
          <mxGeometry relative="1" as="geometry">
            <mxPoint x="475" y="580" as="targetPoint" />
          </mxGeometry>
        </mxCell>
        <mxCell id="_Q1D4A2BXSlT8b5iJfI7-43" value="$$|y_{испр} - y_{ожид}| &amp;gt; \epsilon$$" style="rhombus;whiteSpace=wrap;html=1;" vertex="1" parent="1">
          <mxGeometry x="467.5" y="470" width="135" height="80" as="geometry" />
        </mxCell>
        <mxCell id="_Q1D4A2BXSlT8b5iJfI7-47" value="" style="edgeStyle=orthogonalEdgeStyle;rounded=0;orthogonalLoop=1;jettySize=auto;html=1;" edge="1" parent="1" source="_Q1D4A2BXSlT8b5iJfI7-45" target="_Q1D4A2BXSlT8b5iJfI7-46">
          <mxGeometry relative="1" as="geometry" />
        </mxCell>
        <mxCell id="_Q1D4A2BXSlT8b5iJfI7-45" value="$$h = \frac{h}{2}$$" style="rounded=0;whiteSpace=wrap;html=1;" vertex="1" parent="1">
          <mxGeometry x="640" y="480" width="120" height="60" as="geometry" />
        </mxCell>
        <mxCell id="_Q1D4A2BXSlT8b5iJfI7-49" value="" style="edgeStyle=orthogonalEdgeStyle;rounded=0;orthogonalLoop=1;jettySize=auto;html=1;" edge="1" parent="1" source="_Q1D4A2BXSlT8b5iJfI7-46" target="_Q1D4A2BXSlT8b5iJfI7-48">
          <mxGeometry relative="1" as="geometry" />
        </mxCell>
        <mxCell id="_Q1D4A2BXSlT8b5iJfI7-46" value="$$ y_{ожид} = y + h \cdot f(x, y) $$" style="whiteSpace=wrap;html=1;rounded=0;" vertex="1" parent="1">
          <mxGeometry x="625" y="580" width="150" height="60" as="geometry" />
        </mxCell>
        <mxCell id="_Q1D4A2BXSlT8b5iJfI7-50" style="edgeStyle=orthogonalEdgeStyle;rounded=0;orthogonalLoop=1;jettySize=auto;html=1;entryX=0;entryY=0.5;entryDx=0;entryDy=0;exitX=0;exitY=0.5;exitDx=0;exitDy=0;" edge="1" parent="1" source="_Q1D4A2BXSlT8b5iJfI7-48" target="_Q1D4A2BXSlT8b5iJfI7-43">
          <mxGeometry relative="1" as="geometry">
            <Array as="points">
              <mxPoint x="385" y="710" />
              <mxPoint x="385" y="510" />
            </Array>
          </mxGeometry>
        </mxCell>
        <mxCell id="_Q1D4A2BXSlT8b5iJfI7-48" value="$$ y_{испр} = y + \frac{h \cdot (f(x, y) + f (x + h, y_{ожид}))}{2}$$" style="whiteSpace=wrap;html=1;rounded=0;" vertex="1" parent="1">
          <mxGeometry x="570" y="680" width="260" height="60" as="geometry" />
        </mxCell>
        <mxCell id="_Q1D4A2BXSlT8b5iJfI7-53" style="edgeStyle=orthogonalEdgeStyle;rounded=0;orthogonalLoop=1;jettySize=auto;html=1;entryX=0;entryY=0.5;entryDx=0;entryDy=0;" edge="1" parent="1" source="_Q1D4A2BXSlT8b5iJfI7-52" target="_Q1D4A2BXSlT8b5iJfI7-37">
          <mxGeometry relative="1" as="geometry">
            <Array as="points">
              <mxPoint x="240" y="620" />
              <mxPoint x="240" y="300" />
            </Array>
          </mxGeometry>
        </mxCell>
        <mxCell id="_Q1D4A2BXSlT8b5iJfI7-52" value="$$x= x + h$$&lt;div&gt;$$y = y_{испр}$$&lt;/div&gt;" style="rounded=0;whiteSpace=wrap;html=1;" vertex="1" parent="1">
          <mxGeometry x="475" y="590" width="120" height="60" as="geometry" />
        </mxCell>
        <mxCell id="_Q1D4A2BXSlT8b5iJfI7-56" value="Вернуть \(y\)" style="ellipse;whiteSpace=wrap;html=1;" vertex="1" parent="1">
          <mxGeometry x="260" y="370" width="120" height="80" as="geometry" />
        </mxCell>
      </root>
    </mxGraphModel>
  </diagram>
</mxfile>
